<svg xmlns="http://www.w3.org/2000/svg" viewBox="0 0 1000 700">
  <defs>
    <linearGradient id="coneL" x1="0" y1="0" x2="1" y2="0.15">
      <stop offset="0%" stop-color="#4a2024"/>
      <stop offset="100%" stop-color="#180b0d"/>
    </linearGradient>
    <linearGradient id="coneR" x1="0" y1="0" x2="1" y2="0">
      <stop offset="0%" stop-color="#180b0d"/>
      <stop offset="100%" stop-color="#0a0405"/>
    </linearGradient>
    <radialGradient id="crater" cx="50%" cy="50%" r="50%">
      <stop offset="0%" stop-color="#fff3c4"/>
      <stop offset="22%" stop-color="#ffb648"/>
      <stop offset="55%" stop-color="#e2551f" stop-opacity="0.85"/>
      <stop offset="100%" stop-color="#e2551f" stop-opacity="0"/>
    </radialGradient>
    <linearGradient id="crack" x1="0" y1="0" x2="0" y2="1">
      <stop offset="0%" stop-color="#ffdf9b"/>
      <stop offset="60%" stop-color="#e2661f" stop-opacity="0.7"/>
      <stop offset="100%" stop-color="#c4491f" stop-opacity="0"/>
    </linearGradient>
  </defs>

  <ellipse cx="500" cy="95" rx="230" ry="150" fill="url(#crater)" opacity="0.5"/>

  <path d="M500,55 L462,150 L410,240 L360,330 L295,430 L215,540 L120,660 L500,660 Z" fill="url(#coneL)"/>
  <path d="M500,55 L536,148 L586,235 L640,325 L715,425 L800,535 L880,660 L500,660 Z" fill="url(#coneR)"/>

  <path d="M500,55 L500,660" stroke="#000" stroke-width="2" opacity="0.35"/>

  <path d="M500,140 L455,300 L490,305 L420,520 L455,530 L390,660" fill="none" stroke="url(#crack)" stroke-width="6" stroke-linecap="round"/>
  <path d="M508,170 L555,330 L522,336 L590,540" fill="none" stroke="url(#crack)" stroke-width="4.5" stroke-linecap="round" opacity="0.8"/>
  <path d="M500,120 L478,205" fill="none" stroke="url(#crack)" stroke-width="3.5" stroke-linecap="round" opacity="0.65"/>

  <ellipse cx="500" cy="60" rx="50" ry="15" fill="#120809"/>
  <ellipse cx="500" cy="55" rx="36" ry="10" fill="url(#crater)"/>
</svg>